<svg xmlns="http://www.w3.org/2000/svg" viewBox="0 0 240 240" fill="none" stroke="#51733f" stroke-width="1.6" stroke-linecap="round" stroke-linejoin="round" aria-hidden="true">
  <!-- Laptop -->
  <g transform="translate(50 80)">
    <path d="M 8 8 L 132 8 L 128 84 L 12 84 Z"/>
    <line x1="22" y1="24" x2="118" y2="24" stroke-width="1.2" opacity="0.55"/>
    <line x1="22" y1="38" x2="98" y2="38" stroke-width="1.2" opacity="0.55"/>
    <line x1="22" y1="52" x2="110" y2="52" stroke-width="1.2" opacity="0.55"/>
    <rect x="22" y="62" width="40" height="6" fill="#51733f" stroke="none" opacity="0.85"/>
    <path d="M 0 88 L 144 88 L 150 108 L -6 108 Z"/>
    <line x1="58" y1="98" x2="92" y2="98" stroke-width="1.2"/>
  </g>
  <!-- Gear -->
  <g transform="translate(180 60)">
    <circle cx="0" cy="0" r="22"/>
    <circle cx="0" cy="0" r="9"/>
    <line x1="0" y1="-22" x2="0" y2="-30"/>
    <line x1="0" y1="22" x2="0" y2="30"/>
    <line x1="-22" y1="0" x2="-30" y2="0"/>
    <line x1="22" y1="0" x2="30" y2="0"/>
    <line x1="-15.5" y1="-15.5" x2="-21" y2="-21"/>
    <line x1="15.5" y1="-15.5" x2="21" y2="-21"/>
    <line x1="-15.5" y1="15.5" x2="-21" y2="21"/>
    <line x1="15.5" y1="15.5" x2="21" y2="21"/>
  </g>
  <!-- Code brackets -->
  <g transform="translate(36 200)">
    <path d="M 16 0 L 4 12 L 16 24" stroke-width="2"/>
    <path d="M 36 0 L 48 12 L 36 24" stroke-width="2"/>
    <line x1="22" y1="6" x2="30" y2="18" stroke-width="1.6"/>
  </g>
  <!-- Floating dots -->
  <circle cx="200" cy="180" r="3" fill="#51733f" stroke="none" opacity="0.7"/>
  <circle cx="218" cy="170" r="2" fill="#51733f" stroke="none" opacity="0.5"/>
  <circle cx="208" cy="200" r="2.2" fill="#51733f" stroke="none" opacity="0.6"/>
</svg>
