<svg xmlns="http://www.w3.org/2000/svg" viewBox="0 0 240 240" fill="none" stroke="#51733f" stroke-width="1.6" stroke-linecap="round" stroke-linejoin="round" aria-hidden="true">
  <!-- Chart axes -->
  <line x1="40" y1="40" x2="40" y2="200"/>
  <line x1="40" y1="200" x2="210" y2="200"/>
  <!-- Data line -->
  <path d="M 50 178 L 78 162 L 102 168 L 130 132 L 158 110 L 188 78"/>
  <!-- Data points -->
  <circle cx="50" cy="178" r="4" fill="#51733f" stroke="none" opacity="0.85"/>
  <circle cx="78" cy="162" r="4" fill="#51733f" stroke="none" opacity="0.85"/>
  <circle cx="102" cy="168" r="4" fill="#51733f" stroke="none" opacity="0.85"/>
  <circle cx="130" cy="132" r="4" fill="#51733f" stroke="none" opacity="0.85"/>
  <circle cx="158" cy="110" r="4" fill="#51733f" stroke="none" opacity="0.85"/>
  <circle cx="188" cy="78" r="6" fill="#51733f" stroke="none"/>
  <!-- Tick marks -->
  <line x1="40" y1="180" x2="36" y2="180" stroke-width="1.2"/>
  <line x1="40" y1="140" x2="36" y2="140" stroke-width="1.2"/>
  <line x1="40" y1="100" x2="36" y2="100" stroke-width="1.2"/>
  <line x1="40" y1="60" x2="36" y2="60" stroke-width="1.2"/>
  <!-- Annotation arrow -->
  <path d="M 188 60 L 188 70" stroke-width="1.2"/>
  <path d="M 184 64 L 188 60 L 192 64" stroke-width="1.2"/>
  <text x="186" y="52" font-family="serif" font-size="14" fill="#51733f" stroke="none" font-style="italic" text-anchor="middle">2026</text>
  <!-- Grid dots -->
  <circle cx="78" cy="200" r="1" fill="#51733f" stroke="none" opacity="0.5"/>
  <circle cx="102" cy="200" r="1" fill="#51733f" stroke="none" opacity="0.5"/>
  <circle cx="130" cy="200" r="1" fill="#51733f" stroke="none" opacity="0.5"/>
  <circle cx="158" cy="200" r="1" fill="#51733f" stroke="none" opacity="0.5"/>
</svg>
