<svg xmlns="http://www.w3.org/2000/svg" viewBox="0 0 240 240" fill="none" stroke="#51733f" stroke-width="1.6" stroke-linecap="round" stroke-linejoin="round" aria-hidden="true">
  <!-- Open notebook -->
  <g transform="translate(40 80)">
    <path d="M 0 8 Q 80 -8 160 8 L 160 100 Q 80 86 0 100 Z" />
    <line x1="80" y1="2" x2="80" y2="92" stroke-width="1" opacity="0.5"/>
    <line x1="14" y1="24" x2="68" y2="24" stroke-width="1" opacity="0.6"/>
    <line x1="14" y1="38" x2="62" y2="38" stroke-width="1" opacity="0.6"/>
    <line x1="14" y1="52" x2="68" y2="52" stroke-width="1" opacity="0.6"/>
    <line x1="14" y1="66" x2="56" y2="66" stroke-width="1" opacity="0.6"/>
    <circle cx="98" cy="28" r="3" fill="#51733f" stroke="none" opacity="0.85"/>
    <circle cx="116" cy="28" r="3" fill="#51733f" stroke="none" opacity="0.85"/>
    <circle cx="134" cy="28" r="3" fill="#51733f" stroke="none" opacity="0.85"/>
    <line x1="100" y1="28" x2="114" y2="28" stroke-width="1"/>
    <line x1="118" y1="28" x2="132" y2="28" stroke-width="1"/>
    <rect x="96" y="46" width="44" height="14" rx="2"/>
    <rect x="96" y="68" width="30" height="10" rx="2"/>
  </g>
  <!-- Pen -->
  <g transform="translate(120 192) rotate(-22)">
    <path d="M 0 0 L 70 0 L 75 5 L 70 10 L 0 10 Z"/>
    <path d="M 70 0 L 84 5 L 70 10" fill="#51733f" stroke="none" opacity="0.85"/>
    <line x1="14" y1="0" x2="14" y2="10" stroke-width="0.8" opacity="0.6"/>
  </g>
  <!-- Steam dots -->
  <circle cx="60" cy="40" r="2.4" fill="#51733f" stroke="none" opacity="0.5"/>
  <circle cx="78" cy="32" r="1.6" fill="#51733f" stroke="none" opacity="0.4"/>
  <circle cx="92" cy="46" r="1.4" fill="#51733f" stroke="none" opacity="0.55"/>
</svg>
